:FULLY-SPECIFIED
:FORCE-ALL-JOINTS-BE-3DOF
:DEGREES
815
root 1.96709 16.6959 22.5574 4.8226 1.98004 353.628
lfemur -39.5155 0.574264 -0.65292
ltibia 23.193 0 0
lfoot -9.39984 6.57304 0
ltoes 15.479 0 0
rfemur 0.694577 4.65754 21.7604
rtibia 23.0676 0 0
rfoot -22.2812 -10.3996 0
rtoes -22.3932 0 0
lowerback 0.950467 5.91876 5.55243
upperback -0.0978526 7.94953 -0.347845
thorax 0.16868 3.97751 -3.43263
lowerneck -5.92293 -1.70914 2.87081
upperneck -0.79475 -2.47387 1.37595
head 0.715419 -1.21827 -0.109504
lclavicle -2.76169e-14 2.83978e-16 0
lhumerus -53.2718 -7.18804 91.6609
lradius 54.2515 0 0
lwrist 19.7171 0 0
lhand -10.9563 5.05163 0
lfingers 7.12502 0 0
lthumb 15.0615 34.4685 0
rclavicle -2.76169e-14 2.83978e-16 0
rhumerus -30.9261 45.4522 -111.353
rradius 67.6917 0 0
rwrist -0.980298 0 0
rhand -11.2061 -25.2661 0
rfingers 7.12502 0 0
rthumb 14.8208 -774.699 0
816
root 2.0025 16.6717 22.7237 4.78061 0.708457 353.387
lfemur -38.775 0.293476 0.23156
ltibia 21.9231 0 0
lfoot -9.05551 8.24889 0
ltoes 16.1908 0 0
rfemur 1.72344 5.02244 21.8502
rtibia 22.2375 0 0
rfoot -22.1007 -10.7787 0
rtoes -23.1063 0 0
lowerback 0.764491 6.10634 5.63379
upperback -0.14119 8.18964 -0.277754
thorax 0.252402 4.09866 -3.37895
lowerneck -5.83911 -1.65697 2.96196
upperneck -0.5887 -2.41216 1.36833
head 0.76529 -1.18492 -0.126201
lclavicle -2.21432e-14 2.27182e-16 0
lhumerus -53.2947 -6.98118 91.4283
lradius 53.8115 0 0
lwrist 19.4645 0 0
lhand -10.1974 5.14029 0
lfingers 7.12502 0 0
lthumb 15.7923 34.4977 0
rclavicle -2.21432e-14 2.27182e-16 0
rhumerus -30.6554 45.3944 -110.777
rradius 67.5522 0 0
rwrist -1.27968 0 0
rhand -10.3994 -24.7383 0
rfingers 7.12502 0 0
rthumb 15.5977 -774.109 0
817
root 2.03792 16.6475 22.89 4.73863 -0.563127 353.146
lfemur -38.0344 0.0126886 1.11604
ltibia 20.6533 0 0
lfoot -8.71119 9.92475 0
ltoes 16.9025 0 0
rfemur 2.75229 5.38735 21.94
rtibia 21.4073 0 0
rfoot -21.9202 -11.1578 0
rtoes -23.8195 0 0
lowerback 0.578515 6.29392 5.71514
upperback -0.184527 8.42976 -0.207664
thorax 0.336124 4.21981 -3.32527
lowerneck -5.75528 -1.60479 3.05311
upperneck -0.382649 -2.35044 1.36071
head 0.815162 -1.15157 -0.142897
lclavicle -1.66695e-14 1.70387e-16 0
lhumerus -53.3176 -6.77432 91.1957
lradius 53.3714 0 0
lwrist 19.2119 0 0
lhand -9.43845 5.22895 0
lfingers 7.12502 0 0
lthumb 16.5231 34.527 0
rclavicle -1.66695e-14 1.70387e-16 0
rhumerus -30.3846 45.3366 -110.2
rradius 67.4127 0 0
rwrist -1.57907 0 0
rhand -9.59257 -24.2105 0
rfingers 7.12502 0 0
rthumb 16.3745 -773.518 0
818
root 2.07333 16.6233 23.0563 4.69664 -1.83471 352.905
lfemur -37.2939 -0.268099 2.00052
ltibia 19.3834 0 0
lfoot -8.36686 11.6006 0
ltoes 17.6143 0 0
rfemur 3.78115 5.75225 22.0298
rtibia 20.5772 0 0
rfoot -21.7397 -11.5369 0
rtoes -24.5326 0 0
lowerback 0.392539 6.4815 5.7965
upperback -0.227864 8.66987 -0.137573
thorax 0.419846 4.34096 -3.27159
lowerneck -5.67146 -1.55262 3.14426
upperneck -0.176599 -2.28873 1.35309
head 0.865033 -1.11822 -0.159593
lclavicle -1.11958e-14 1.13591e-16 0
lhumerus -53.3405 -6.56746 90.9631
lradius 52.9314 0 0
lwrist 18.9593 0 0
lhand -8.67951 5.31761 0
lfingers 7.12502 0 0
lthumb 17.2539 34.5562 0
rclavicle -1.11958e-14 1.13591e-16 0
rhumerus -30.1139 45.2788 -109.624
rradius 67.2732 0 0
rwrist -1.87846 0 0
rhand -8.78579 -23.6827 0
rfingers 7.12502 0 0
rthumb 17.1514 -772.928 0
819
root 2.10875 16.599 23.2226 4.65465 -3.1063 352.665
lfemur -36.5534 -0.548887 2.885
ltibia 18.1135 0 0
lfoot -8.02253 13.2764 0
ltoes 18.326 0 0
rfemur 4.81001 6.11716 22.1197
rtibia 19.7471 0 0
rfoot -21.5591 -11.916 0
rtoes -25.2458 0 0
lowerback 0.206562 6.66908 5.87785
upperback -0.271201 8.90999 -0.067483
thorax 0.503568 4.46211 -3.21791
lowerneck -5.58763 -1.50044 3.23541
upperneck 0.0294509 -2.22702 1.34548
head 0.914905 -1.08486 -0.17629
lclavicle -5.72216e-15 5.67956e-17 0
lhumerus -53.3633 -6.3606 90.7306
lradius 52.4913 0 0
lwrist 18.7068 0 0
lhand -7.92057 5.40627 0
lfingers 7.12502 0 0
lthumb 17.9846 34.5854 0
rclavicle -5.72216e-15 5.67956e-17 0
rhumerus -29.8432 45.2209 -109.047
rradius 67.1336 0 0
rwrist -2.17784 0 0
rhand -7.97901 -23.155 0
rfingers 7.12502 0 0
rthumb 17.9283 -772.338 0
820
root 2.14416 16.5748 23.3889 4.61266 -4.37788 352.424
lfemur -35.8129 -0.829675 3.76948
ltibia 16.8436 0 0
lfoot -7.6782 14.9523 0
ltoes 19.0378 0 0
rfemur 5.83887 6.48206 22.2095
rtibia 18.917 0 0
rfoot -21.3786 -12.2951 0
rtoes -25.9589 0 0
lowerback 0.0205861 6.85666 5.95921
upperback -0.314538 9.1501 0.00260752
thorax 0.58729 4.58326 -3.16423
lowerneck -5.50381 -1.44827 3.32656
upperneck 0.235501 -2.16531 1.33786
head 0.964776 -1.05151 -0.192986
lclavicle -2.48481e-16 0 0
lhumerus -53.3862 -6.15374 90.498
lradius 52.0513 0 0
lwrist 18.4542 0 0
lhand -7.16163 5.49493 0
lfingers 7.12502 0 0
lthumb 18.7154 34.6146 0
rclavicle -2.48481e-16 0 0
rhumerus -29.5725 45.1631 -108.471
rradius 66.9941 0 0
rwrist -2.47723 0 0
rhand -7.17223 -22.6272 0
rfingers 7.12502 0 0
rthumb 18.7052 -771.748 0
821
root 2.19718 16.5414 23.5759 4.39802 -5.08451 352.35
lfemur -35.4318 -0.415684 3.49811
ltibia 17.6789 0 0
lfoot -7.21351 15.0409 0
ltoes 19.1579 0 0
rfemur 6.59372 5.99329 21.8351
rtibia 19.0176 0 0
rfoot -21.1524 -12.4088 0
rtoes -27.6202 0 0
lowerback -0.19298 6.94502 5.95383
upperback -0.396455 9.25524 0.0674246
thorax 0.619036 4.63447 -3.06855
lowerneck -5.45787 -1.40539 3.44303
upperneck 0.599169 -2.12064 1.28257
head 1.0723 -1.02321 -0.230985
lclavicle 3.49116e-15 6.81547e-16 0
lhumerus -53.683 -5.80276 90.176
lradius 51.945 0 0
lwrist 18.0903 0 0
lhand -6.552 5.54379 0
lfingers 7.12502 0 0
lthumb 19.3011 34.5993 0
rclavicle 3.49116e-15 6.81547e-16 0
rhumerus -29.4495 44.749 -107.481
rradius 66.8453 0 0
rwrist -2.47122 0 0
rhand -6.93614 -22.0417 0
rfingers 7.12502 0 0
rthumb 18.9322 -771.139 0
822
root 2.2502 16.5079 23.7628 4.18338 -5.79113 352.277
lfemur -35.0508 -0.00169357 3.22673
ltibia 18.5141 0 0
lfoot -6.74882 15.1294 0
ltoes 19.278 0 0
rfemur 7.34856 5.50452 21.4608
rtibia 19.1181 0 0
rfoot -20.9261 -12.5224 0
rtoes -29.2816 0 0
lowerback -0.406547 7.03337 5.94845
upperback -0.478371 9.36037 0.132242
thorax 0.650781 4.68569 -2.97288
lowerneck -5.41193 -1.3625 3.55951
upperneck 0.962838 -2.07596 1.22729
head 1.17981 -0.994907 -0.268984
lclavicle 7.2308e-15 1.36309e-15 0
lhumerus -53.9797 -5.45179 89.8539
lradius 51.8386 0 0
lwrist 17.7264 0 0
lhand -5.94238 5.59265 0
lfingers 7.12502 0 0
lthumb 19.8869 34.584 0
rclavicle 7.2308e-15 1.36309e-15 0
rhumerus -29.3266 44.3348 -106.492
rradius 66.6966 0 0
rwrist -2.46521 0 0
rhand -6.70005 -21.4561 0
rfingers 7.12502 0 0
rthumb 19.1592 -770.531 0
823
root 2.30322 16.4745 23.9498 3.96874 -6.49776 352.203
lfemur -34.6697 0.412297 2.95536
ltibia 19.3494 0 0
lfoot -6.28413 15.218 0
ltoes 19.3981 0 0
rfemur 8.10341 5.01575 21.0864
rtibia 19.2187 0 0
rfoot -20.6999 -12.6361 0
rtoes -30.9429 0 0
lowerback -0.620114 7.12173 5.94307
upperback -0.560288 9.46551 0.197059
thorax 0.682527 4.7369 -2.8772
lowerneck -5.36599 -1.31962 3.67598
upperneck 1.32651 -2.03129 1.172
head 1.28733 -0.966605 -0.306983
lclavicle 1.09704e-14 2.04464e-15 0
lhumerus -54.2765 -5.10081 89.5319
lradius 51.7323 0 0
lwrist 17.3625 0 0
lhand -5.33275 5.64151 0
lfingers 7.12502 0 0
lthumb 20.4726 34.5687 0
rclavicle 1.09704e-14 2.04464e-15 0
rhumerus -29.2036 43.9207 -105.502
rradius 66.5478 0 0
rwrist -2.4592 0 0
rhand -6.46396 -20.8706 0
rfingers 7.12502 0 0
rthumb 19.3862 -769.922 0
824
root 2.35624 16.441 24.1368 3.75409 -7.20438 352.13
lfemur -34.2886 0.826288 2.68399
ltibia 20.1847 0 0
lfoot -5.81945 15.3065 0
ltoes 19.5181 0 0
rfemur 8.85826 4.52697 20.7121
rtibia 19.3192 0 0
rfoot -20.4737 -12.7498 0
rtoes -32.6042 0 0
lowerback -0.83368 7.21009 5.93769
upperback -0.642204 9.57064 0.261876
thorax 0.714272 4.78811 -2.78153
lowerneck -5.32004 -1.27673 3.79245
upperneck 1.69017 -1.98661 1.11671
head 1.39485 -0.938303 -0.344982
lclavicle 1.47101e-14 2.72619e-15 0
lhumerus -54.5732 -4.74983 89.2099
lradius 51.626 0 0
lwrist 16.9986 0 0
lhand -4.72313 5.69036 0
lfingers 7.12502 0 0
lthumb 21.0583 34.5535 0
rclavicle 1.47101e-14 2.72619e-15 0
rhumerus -29.0806 43.5066 -104.512
rradius 66.3991 0 0
rwrist -2.4532 0 0
rhand -6.22788 -20.2851 0
rfingers 7.12502 0 0
rthumb 19.6131 -769.314 0
